# xmcd CD database file
#
# Track frame offsets:
#	182
#	11440
#	23247
#	33547
#	43587
#	53665
#	64052
#	73600
#	82525
#	92442
#	104590
#	115672
#	127532
#	136790
#	148432
#	158217
#	169777
#	182425
#	192975
#	203335
#	214800
#	227282
#	240155
#	251010
#	263735
#	274585
#	285310
#	295822
#	307657
#	317607
#	330072
#
# Disc length: 4542 seconds
#
# Revision: 1
# Processed by: cddbd v1.5.2PL0 Copyright (c) Steve Scherf et al.
# Submitted via: CDex 1.70beta1
#
DISCID=8a11bc1f
DTITLE=Wanda Jackson - Capitol Classics
DYEAR=1993
DGENRE=Country
TTITLE0=I Gotta Know [1956, Country chart #15]
TTITLE1=Silver Threads And Golden Needles [1956]
TTITLE2=Cool Love [1957]
TTITLE3=Don'a Wan'a [1957]
TTITLE4=Fujiyama Mama [1957]
TTITLE5=Making Believe [1958]
TTITLE6=Let's Have A Party [1958, Pop chart #37]
TTITLE7=Long Tall Sally [1958]
TTITLE8=Mean, Mean Man [1958, Pop chart #46]
TTITLE9=Tweedlee Dee [1960]
TTITLE10=Little Charm Bracelet [1960]
TTITLE11=Right Or Wrong [1960, Pop chart #29, Country chart #9]
TTITLE12=There's A Party Goin' On [1960]
TTITLE13=I May Never Get To Heaven [1961]
TTITLE14=Slippin' And Slidin' [1961]
TTITLE15=In The Middle Of A Heartache [1961, Pop chart #27, Country chart #6]
TTITLE16=This Should Go On Forever [1961]
TTITLE17=(Let's Stop) Kicking Our Hearts Around [1961]
TTITLE18=Between The Window And The Phone [1962]
TTITLE19=If I Cried Every Time You Hurt Me [1962, Pop chart #58, Country chart #28]
TTITLE20=Slippin' [1963, Country chart #46]
TTITLE21=The Violet And The Rose [1964, Country chart #36]
TTITLE22=The Box It Came In [1966, Country chart #18]
TTITLE23=Blue Yodel No.6 [1964]
TTITLE24=Because It's You [1966, Country chart #28]
TTITLE25=Tears Will Be The Chaser For Your Wine [1966, Country chart #11]
TTITLE26=Both Sides Of The Line [1967, Country chart #21]
TTITLE27=A Girl Don't Have To Drink To Have Fun [1967, Country chart #22]
TTITLE28=My Big Iron Skillet [1969, Country chart #20]
TTITLE29=A Woman Lives For Love [1970, Country chart #17]
TTITLE30=Fancy Satin Pillows [1970, Country chart #13]
EXTD=YEAR: 1993
EXTT0=
EXTT1=
EXTT2=
EXTT3=
EXTT4=
EXTT5=
EXTT6=
EXTT7=
EXTT8=
EXTT9=
EXTT10=
EXTT11=
EXTT12=
EXTT13=
EXTT14=
EXTT15=
EXTT16=
EXTT17=
EXTT18=
EXTT19=
EXTT20=
EXTT21=
EXTT22=
EXTT23=
EXTT24=
EXTT25=
EXTT26=
EXTT27=
EXTT28=
EXTT29=
EXTT30=
PLAYORDER=
